<mxfile host="app.diagrams.net" modified="2021-01-05T11:23:18.611Z" agent="5.0 (Macintosh; Intel Mac OS X 10_15_7) AppleWebKit/605.1.15 (KHTML, like Gecko) Version/13.1.3 Safari/605.1.15" etag="rQ73oUfgThNLuccRaAsZ" version="14.1.8" type="github">
  <diagram id="C5RBs43oDa-KdzZeNtuy" name="Page-1">
    <mxGraphModel dx="1614" dy="1068" grid="1" gridSize="10" guides="1" tooltips="1" connect="1" arrows="1" fold="1" page="1" pageScale="1" pageWidth="827" pageHeight="1169" math="0" shadow="0">
      <root>
        <mxCell id="WIyWlLk6GJQsqaUBKTNV-0" />
        <mxCell id="WIyWlLk6GJQsqaUBKTNV-1" parent="WIyWlLk6GJQsqaUBKTNV-0" />
        <mxCell id="6_Rd-iX3gzmm0mYxBTUK-1" value="亨利八世" style="rounded=0;whiteSpace=wrap;html=1;fontSize=17;fillColor=#d5e8d4;strokeColor=#82b366;" vertex="1" parent="WIyWlLk6GJQsqaUBKTNV-1">
          <mxGeometry x="320" y="40" width="120" height="60" as="geometry" />
        </mxCell>
        <mxCell id="6_Rd-iX3gzmm0mYxBTUK-67" value="女儿" style="edgeStyle=none;rounded=0;orthogonalLoop=1;jettySize=auto;html=1;exitX=0.5;exitY=0;exitDx=0;exitDy=0;entryX=0.5;entryY=1;entryDx=0;entryDy=0;fontSize=17;" edge="1" parent="WIyWlLk6GJQsqaUBKTNV-1" source="6_Rd-iX3gzmm0mYxBTUK-2" target="6_Rd-iX3gzmm0mYxBTUK-1">
          <mxGeometry relative="1" as="geometry" />
        </mxCell>
        <mxCell id="6_Rd-iX3gzmm0mYxBTUK-2" value="玛丽·都铎" style="rounded=1;whiteSpace=wrap;html=1;fontSize=17;" vertex="1" parent="WIyWlLk6GJQsqaUBKTNV-1">
          <mxGeometry x="320" y="150" width="120" height="60" as="geometry" />
        </mxCell>
        <mxCell id="6_Rd-iX3gzmm0mYxBTUK-16" style="edgeStyle=none;rounded=0;orthogonalLoop=1;jettySize=auto;html=1;exitX=0;exitY=0.5;exitDx=0;exitDy=0;fontSize=17;entryX=1;entryY=0.5;entryDx=0;entryDy=0;" edge="1" parent="WIyWlLk6GJQsqaUBKTNV-1" source="6_Rd-iX3gzmm0mYxBTUK-15" target="6_Rd-iX3gzmm0mYxBTUK-6">
          <mxGeometry relative="1" as="geometry">
            <mxPoint x="640" y="210" as="targetPoint" />
          </mxGeometry>
        </mxCell>
        <mxCell id="6_Rd-iX3gzmm0mYxBTUK-17" value="堂兄" style="edgeLabel;html=1;align=center;verticalAlign=middle;resizable=0;points=[];fontSize=17;" vertex="1" connectable="0" parent="6_Rd-iX3gzmm0mYxBTUK-16">
          <mxGeometry x="-0.2" relative="1" as="geometry">
            <mxPoint x="-12" as="offset" />
          </mxGeometry>
        </mxCell>
        <mxCell id="6_Rd-iX3gzmm0mYxBTUK-50" style="edgeStyle=none;shape=link;rounded=0;orthogonalLoop=1;jettySize=auto;html=1;exitX=0;exitY=0.5;exitDx=0;exitDy=0;entryX=1;entryY=0.5;entryDx=0;entryDy=0;fontSize=17;" edge="1" parent="WIyWlLk6GJQsqaUBKTNV-1" source="6_Rd-iX3gzmm0mYxBTUK-6" target="6_Rd-iX3gzmm0mYxBTUK-49">
          <mxGeometry relative="1" as="geometry" />
        </mxCell>
        <mxCell id="6_Rd-iX3gzmm0mYxBTUK-51" value="夫妻" style="edgeLabel;html=1;align=center;verticalAlign=middle;resizable=0;points=[];fontSize=17;" vertex="1" connectable="0" parent="6_Rd-iX3gzmm0mYxBTUK-50">
          <mxGeometry x="0.18" y="-3" relative="1" as="geometry">
            <mxPoint as="offset" />
          </mxGeometry>
        </mxCell>
        <mxCell id="6_Rd-iX3gzmm0mYxBTUK-6" value="路易十二&lt;br&gt;法兰西的第56位国王" style="rounded=0;whiteSpace=wrap;html=1;fontSize=17;fillColor=#d5e8d4;strokeColor=#82b366;" vertex="1" parent="WIyWlLk6GJQsqaUBKTNV-1">
          <mxGeometry x="500" y="250" width="160" height="60" as="geometry" />
        </mxCell>
        <mxCell id="6_Rd-iX3gzmm0mYxBTUK-8" value="" style="shape=link;html=1;fontSize=17;exitX=1;exitY=0.5;exitDx=0;exitDy=0;entryX=0;entryY=0.5;entryDx=0;entryDy=0;" edge="1" parent="WIyWlLk6GJQsqaUBKTNV-1" source="6_Rd-iX3gzmm0mYxBTUK-2" target="6_Rd-iX3gzmm0mYxBTUK-6">
          <mxGeometry width="100" relative="1" as="geometry">
            <mxPoint x="670" y="530" as="sourcePoint" />
            <mxPoint x="770" y="530" as="targetPoint" />
          </mxGeometry>
        </mxCell>
        <mxCell id="6_Rd-iX3gzmm0mYxBTUK-9" value="（前）夫妻" style="edgeLabel;html=1;align=center;verticalAlign=middle;resizable=0;points=[];fontSize=17;" vertex="1" connectable="0" parent="6_Rd-iX3gzmm0mYxBTUK-8">
          <mxGeometry x="0.24" y="1" relative="1" as="geometry">
            <mxPoint x="-17" y="1" as="offset" />
          </mxGeometry>
        </mxCell>
        <mxCell id="6_Rd-iX3gzmm0mYxBTUK-37" value="（前）夫妻" style="edgeStyle=none;rounded=0;orthogonalLoop=1;jettySize=auto;html=1;exitX=1;exitY=0.5;exitDx=0;exitDy=0;entryX=0;entryY=0.5;entryDx=0;entryDy=0;fontSize=17;shape=link;" edge="1" parent="WIyWlLk6GJQsqaUBKTNV-1" source="6_Rd-iX3gzmm0mYxBTUK-10" target="6_Rd-iX3gzmm0mYxBTUK-18">
          <mxGeometry relative="1" as="geometry" />
        </mxCell>
        <mxCell id="6_Rd-iX3gzmm0mYxBTUK-66" value="女儿" style="edgeStyle=none;rounded=0;orthogonalLoop=1;jettySize=auto;html=1;exitX=0.5;exitY=0;exitDx=0;exitDy=0;fontSize=17;" edge="1" parent="WIyWlLk6GJQsqaUBKTNV-1" source="6_Rd-iX3gzmm0mYxBTUK-10">
          <mxGeometry relative="1" as="geometry">
            <mxPoint x="470" y="290" as="targetPoint" />
          </mxGeometry>
        </mxCell>
        <mxCell id="6_Rd-iX3gzmm0mYxBTUK-10" value="克洛德" style="rounded=1;whiteSpace=wrap;html=1;fontSize=17;" vertex="1" parent="WIyWlLk6GJQsqaUBKTNV-1">
          <mxGeometry x="410" y="350" width="120" height="60" as="geometry" />
        </mxCell>
        <mxCell id="6_Rd-iX3gzmm0mYxBTUK-34" value="夫妻" style="edgeStyle=none;rounded=0;orthogonalLoop=1;jettySize=auto;html=1;fontSize=17;shape=link;" edge="1" parent="WIyWlLk6GJQsqaUBKTNV-1" source="6_Rd-iX3gzmm0mYxBTUK-15" target="6_Rd-iX3gzmm0mYxBTUK-20">
          <mxGeometry relative="1" as="geometry" />
        </mxCell>
        <mxCell id="6_Rd-iX3gzmm0mYxBTUK-15" value="昂古莱姆伯爵查理" style="rounded=0;whiteSpace=wrap;html=1;fontSize=17;" vertex="1" parent="WIyWlLk6GJQsqaUBKTNV-1">
          <mxGeometry x="780" y="250" width="120" height="60" as="geometry" />
        </mxCell>
        <mxCell id="6_Rd-iX3gzmm0mYxBTUK-18" value="弗朗索瓦一世&lt;br&gt;1515年加冕。法兰西的第57位国王" style="rounded=0;whiteSpace=wrap;html=1;fontSize=17;fillColor=#d5e8d4;strokeColor=#82b366;" vertex="1" parent="WIyWlLk6GJQsqaUBKTNV-1">
          <mxGeometry x="710" y="350" width="300" height="60" as="geometry" />
        </mxCell>
        <mxCell id="6_Rd-iX3gzmm0mYxBTUK-20" value="萨伏依的路易丝" style="rounded=1;whiteSpace=wrap;html=1;fontSize=17;" vertex="1" parent="WIyWlLk6GJQsqaUBKTNV-1">
          <mxGeometry x="1220" y="250" width="120" height="60" as="geometry" />
        </mxCell>
        <mxCell id="6_Rd-iX3gzmm0mYxBTUK-36" value="儿子" style="endArrow=classic;html=1;fontSize=17;exitX=0.5;exitY=0;exitDx=0;exitDy=0;" edge="1" parent="WIyWlLk6GJQsqaUBKTNV-1" source="6_Rd-iX3gzmm0mYxBTUK-18">
          <mxGeometry width="50" height="50" relative="1" as="geometry">
            <mxPoint x="860" y="290" as="sourcePoint" />
            <mxPoint x="1010" y="290" as="targetPoint" />
          </mxGeometry>
        </mxCell>
        <mxCell id="6_Rd-iX3gzmm0mYxBTUK-39" value="夫妻" style="edgeStyle=none;shape=link;rounded=0;orthogonalLoop=1;jettySize=auto;html=1;exitX=1;exitY=0.5;exitDx=0;exitDy=0;entryX=0;entryY=0.5;entryDx=0;entryDy=0;fontSize=17;" edge="1" parent="WIyWlLk6GJQsqaUBKTNV-1" source="6_Rd-iX3gzmm0mYxBTUK-38" target="6_Rd-iX3gzmm0mYxBTUK-2">
          <mxGeometry relative="1" as="geometry" />
        </mxCell>
        <mxCell id="6_Rd-iX3gzmm0mYxBTUK-38" value="萨福克公爵&lt;br&gt;查尔斯·布兰登" style="rounded=0;whiteSpace=wrap;html=1;fontSize=17;" vertex="1" parent="WIyWlLk6GJQsqaUBKTNV-1">
          <mxGeometry x="110" y="150" width="130" height="60" as="geometry" />
        </mxCell>
        <mxCell id="6_Rd-iX3gzmm0mYxBTUK-44" value="姐姐" style="edgeStyle=none;rounded=0;orthogonalLoop=1;jettySize=auto;html=1;exitX=0;exitY=0.5;exitDx=0;exitDy=0;entryX=1;entryY=0.5;entryDx=0;entryDy=0;fontSize=17;" edge="1" parent="WIyWlLk6GJQsqaUBKTNV-1" source="6_Rd-iX3gzmm0mYxBTUK-42" target="6_Rd-iX3gzmm0mYxBTUK-18">
          <mxGeometry relative="1" as="geometry" />
        </mxCell>
        <mxCell id="6_Rd-iX3gzmm0mYxBTUK-46" value="（前）夫妻" style="edgeStyle=none;rounded=0;orthogonalLoop=1;jettySize=auto;html=1;exitX=1;exitY=0.5;exitDx=0;exitDy=0;entryX=0;entryY=0.5;entryDx=0;entryDy=0;fontSize=17;shape=link;" edge="1" parent="WIyWlLk6GJQsqaUBKTNV-1" source="6_Rd-iX3gzmm0mYxBTUK-42" target="6_Rd-iX3gzmm0mYxBTUK-45">
          <mxGeometry relative="1" as="geometry" />
        </mxCell>
        <mxCell id="6_Rd-iX3gzmm0mYxBTUK-48" value="1525夫妻" style="edgeStyle=none;shape=link;rounded=0;orthogonalLoop=1;jettySize=auto;html=1;exitX=1;exitY=0.5;exitDx=0;exitDy=0;entryX=0;entryY=0.5;entryDx=0;entryDy=0;fontSize=17;" edge="1" parent="WIyWlLk6GJQsqaUBKTNV-1" source="6_Rd-iX3gzmm0mYxBTUK-42" target="6_Rd-iX3gzmm0mYxBTUK-47">
          <mxGeometry relative="1" as="geometry" />
        </mxCell>
        <mxCell id="6_Rd-iX3gzmm0mYxBTUK-42" value="玛格丽特" style="rounded=1;whiteSpace=wrap;html=1;fontSize=17;" vertex="1" parent="WIyWlLk6GJQsqaUBKTNV-1">
          <mxGeometry x="1111" y="350" width="120" height="60" as="geometry" />
        </mxCell>
        <mxCell id="6_Rd-iX3gzmm0mYxBTUK-43" value="女儿" style="endArrow=classic;html=1;fontSize=17;exitX=0.5;exitY=0;exitDx=0;exitDy=0;" edge="1" parent="WIyWlLk6GJQsqaUBKTNV-1" source="6_Rd-iX3gzmm0mYxBTUK-42">
          <mxGeometry width="50" height="50" relative="1" as="geometry">
            <mxPoint x="1170.5" y="390" as="sourcePoint" />
            <mxPoint x="1040" y="290" as="targetPoint" />
          </mxGeometry>
        </mxCell>
        <mxCell id="6_Rd-iX3gzmm0mYxBTUK-45" value="阿朗松公爵" style="rounded=0;whiteSpace=wrap;html=1;fontSize=17;" vertex="1" parent="WIyWlLk6GJQsqaUBKTNV-1">
          <mxGeometry x="1360" y="310" width="120" height="60" as="geometry" />
        </mxCell>
        <mxCell id="6_Rd-iX3gzmm0mYxBTUK-47" value="纳瓦拉国王&lt;br&gt;恩里克二世" style="rounded=0;whiteSpace=wrap;html=1;fontSize=17;fillColor=#d5e8d4;strokeColor=#82b366;" vertex="1" parent="WIyWlLk6GJQsqaUBKTNV-1">
          <mxGeometry x="1360" y="390" width="120" height="60" as="geometry" />
        </mxCell>
        <mxCell id="6_Rd-iX3gzmm0mYxBTUK-49" value="布列塔尼的&lt;br&gt;安妮" style="rounded=1;whiteSpace=wrap;html=1;fontSize=17;" vertex="1" parent="WIyWlLk6GJQsqaUBKTNV-1">
          <mxGeometry x="320" y="250" width="120" height="60" as="geometry" />
        </mxCell>
        <mxCell id="6_Rd-iX3gzmm0mYxBTUK-71" value="内弟（老婆的弟弟）&lt;br&gt;兼竞争对手" style="edgeStyle=none;rounded=0;orthogonalLoop=1;jettySize=auto;html=1;exitX=0.5;exitY=0;exitDx=0;exitDy=0;entryX=0.5;entryY=1;entryDx=0;entryDy=0;fontSize=17;" edge="1" parent="WIyWlLk6GJQsqaUBKTNV-1" source="6_Rd-iX3gzmm0mYxBTUK-52" target="6_Rd-iX3gzmm0mYxBTUK-18">
          <mxGeometry relative="1" as="geometry" />
        </mxCell>
        <mxCell id="6_Rd-iX3gzmm0mYxBTUK-52" value="查理五世" style="rounded=0;whiteSpace=wrap;html=1;fontSize=17;fillColor=#d5e8d4;strokeColor=#82b366;" vertex="1" parent="WIyWlLk6GJQsqaUBKTNV-1">
          <mxGeometry x="613" y="610" width="120" height="60" as="geometry" />
        </mxCell>
        <mxCell id="6_Rd-iX3gzmm0mYxBTUK-55" style="edgeStyle=none;rounded=0;orthogonalLoop=1;jettySize=auto;html=1;exitX=1;exitY=0.5;exitDx=0;exitDy=0;entryX=0;entryY=0.5;entryDx=0;entryDy=0;fontSize=17;" edge="1" parent="WIyWlLk6GJQsqaUBKTNV-1" source="6_Rd-iX3gzmm0mYxBTUK-53" target="6_Rd-iX3gzmm0mYxBTUK-52">
          <mxGeometry relative="1" as="geometry" />
        </mxCell>
        <mxCell id="6_Rd-iX3gzmm0mYxBTUK-56" value="姐姐" style="edgeLabel;html=1;align=center;verticalAlign=middle;resizable=0;points=[];fontSize=17;" vertex="1" connectable="0" parent="6_Rd-iX3gzmm0mYxBTUK-55">
          <mxGeometry x="-0.025" y="-1" relative="1" as="geometry">
            <mxPoint as="offset" />
          </mxGeometry>
        </mxCell>
        <mxCell id="6_Rd-iX3gzmm0mYxBTUK-59" style="edgeStyle=none;shape=link;rounded=0;orthogonalLoop=1;jettySize=auto;html=1;exitX=0.5;exitY=1;exitDx=0;exitDy=0;entryX=0;entryY=0.5;entryDx=0;entryDy=0;fontSize=17;" edge="1" parent="WIyWlLk6GJQsqaUBKTNV-1" source="6_Rd-iX3gzmm0mYxBTUK-53" target="6_Rd-iX3gzmm0mYxBTUK-18">
          <mxGeometry relative="1" as="geometry" />
        </mxCell>
        <mxCell id="6_Rd-iX3gzmm0mYxBTUK-61" value="夫妻" style="edgeLabel;html=1;align=center;verticalAlign=middle;resizable=0;points=[];fontSize=17;" vertex="1" connectable="0" parent="6_Rd-iX3gzmm0mYxBTUK-59">
          <mxGeometry x="-0.1023" relative="1" as="geometry">
            <mxPoint x="33.24" y="-26.93" as="offset" />
          </mxGeometry>
        </mxCell>
        <mxCell id="6_Rd-iX3gzmm0mYxBTUK-53" value="奥地利的&lt;br&gt;埃莉诺" style="rounded=1;whiteSpace=wrap;html=1;fontSize=17;" vertex="1" parent="WIyWlLk6GJQsqaUBKTNV-1">
          <mxGeometry x="413" y="610" width="120" height="60" as="geometry" />
        </mxCell>
        <mxCell id="6_Rd-iX3gzmm0mYxBTUK-58" value="（第三任）夫妻" style="edgeStyle=none;rounded=0;orthogonalLoop=1;jettySize=auto;html=1;exitX=1;exitY=0.5;exitDx=0;exitDy=0;entryX=0;entryY=0.5;entryDx=0;entryDy=0;fontSize=17;shape=link;" edge="1" parent="WIyWlLk6GJQsqaUBKTNV-1" source="6_Rd-iX3gzmm0mYxBTUK-57" target="6_Rd-iX3gzmm0mYxBTUK-53">
          <mxGeometry relative="1" as="geometry" />
        </mxCell>
        <mxCell id="6_Rd-iX3gzmm0mYxBTUK-57" value="葡萄牙国王&lt;br&gt;曼努埃尔一世" style="rounded=0;whiteSpace=wrap;html=1;fontSize=17;fillColor=#d5e8d4;strokeColor=#82b366;" vertex="1" parent="WIyWlLk6GJQsqaUBKTNV-1">
          <mxGeometry x="110" y="610" width="120" height="60" as="geometry" />
        </mxCell>
        <mxCell id="6_Rd-iX3gzmm0mYxBTUK-63" value="情妇" style="edgeStyle=none;shape=link;rounded=0;orthogonalLoop=1;jettySize=auto;html=1;exitX=1;exitY=0.5;exitDx=0;exitDy=0;entryX=0;entryY=0.5;entryDx=0;entryDy=0;fontSize=17;" edge="1" parent="WIyWlLk6GJQsqaUBKTNV-1" source="6_Rd-iX3gzmm0mYxBTUK-62" target="6_Rd-iX3gzmm0mYxBTUK-18">
          <mxGeometry relative="1" as="geometry" />
        </mxCell>
        <mxCell id="6_Rd-iX3gzmm0mYxBTUK-68" value="女儿" style="edgeStyle=none;rounded=0;orthogonalLoop=1;jettySize=auto;html=1;exitX=0;exitY=0.5;exitDx=0;exitDy=0;entryX=1;entryY=0.5;entryDx=0;entryDy=0;fontSize=17;" edge="1" parent="WIyWlLk6GJQsqaUBKTNV-1" source="6_Rd-iX3gzmm0mYxBTUK-62" target="6_Rd-iX3gzmm0mYxBTUK-64">
          <mxGeometry relative="1" as="geometry" />
        </mxCell>
        <mxCell id="6_Rd-iX3gzmm0mYxBTUK-62" value="安妮·德·埃莉&lt;br&gt;埃当普伯爵夫人" style="rounded=1;whiteSpace=wrap;html=1;fontSize=17;" vertex="1" parent="WIyWlLk6GJQsqaUBKTNV-1">
          <mxGeometry x="390" y="470" width="160" height="60" as="geometry" />
        </mxCell>
        <mxCell id="6_Rd-iX3gzmm0mYxBTUK-64" value="皮卡第的&lt;br&gt;德·皮瑟勒爵士" style="rounded=0;whiteSpace=wrap;html=1;fontSize=17;" vertex="1" parent="WIyWlLk6GJQsqaUBKTNV-1">
          <mxGeometry x="190" y="470" width="120" height="60" as="geometry" />
        </mxCell>
      </root>
    </mxGraphModel>
  </diagram>
</mxfile>
